<?xml version="1.0" standalone="no"?>
<!DOCTYPE svg PUBLIC "-//W3C//DTD SVG 20010904//EN"
 "http://www.w3.org/TR/2001/REC-SVG-20010904/DTD/svg10.dtd">
<svg version="1.0" xmlns="http://www.w3.org/2000/svg"
 width="512.000000pt" height="512.000000pt" viewBox="0 0 512.000000 512.000000"
 preserveAspectRatio="xMidYMid meet">

<g transform="translate(0.000000,512.000000) scale(0.100000,-0.100000)"
fill="#000000" stroke="none">
<path d="M720 4485 c-103 -32 -207 -132 -246 -238 -19 -51 -19 -93 -19 -1692
l0 -1640 27 -57 c53 -114 125 -180 236 -217 l62 -21 1808 2 1807 3 57 27 c120
56 207 170 228 299 14 88 14 3129 0 3219 -24 149 -122 265 -264 313 -46 16
-196 17 -1850 16 -1512 0 -1808 -3 -1846 -14z m3667 -140 c59 -25 96 -59 128
-116 l30 -54 0 -235 0 -235 -1978 -3 -1978 -2 3 242 c3 229 4 245 25 285 26
48 86 102 134 119 26 10 443 13 1817 13 1579 1 1787 -1 1819 -14z m161 -2087
c-3 -1297 -3 -1303 -24 -1348 -23 -51 -71 -102 -118 -128 -29 -16 -150 -17
-1826 -20 l-1796 -2 -54 27 c-61 31 -113 92 -130 151 -6 25 -10 470 -10 1330
l0 1292 1980 0 1980 0 -2 -1302z"/>
<path d="M1028 4096 c-28 -21 -38 -58 -23 -92 31 -75 135 -51 135 30 0 58 -68
96 -112 62z"/>
<path d="M1456 4089 c-51 -40 -23 -129 42 -129 57 0 96 56 71 103 -27 50 -70
60 -113 26z"/>
<path d="M1886 4089 c-34 -27 -36 -77 -3 -107 49 -46 121 -14 121 53 0 67 -64
96 -118 54z"/>
<path d="M900 3248 c-20 -21 -20 -31 -20 -674 0 -644 0 -652 21 -678 l20 -26
664 0 664 0 20 26 c21 26 21 34 21 674 0 640 0 648 -21 674 l-20 26 -664 0
-664 0 -21 -22z m1250 -679 l0 -560 -26 3 c-23 3 -29 10 -41 57 -17 69 -66
160 -115 216 -161 183 -456 222 -664 87 -117 -76 -187 -177 -224 -319 -9 -36
-15 -43 -35 -43 l-25 0 0 560 0 560 565 0 565 0 0 -561z m-486 -264 c99 -16
207 -100 256 -198 53 -106 84 -97 -339 -97 l-370 0 9 30 c18 62 56 122 107
171 60 57 116 85 194 98 54 9 67 8 143 -4z"/>
<path d="M1489 3067 c-130 -49 -204 -154 -203 -287 1 -115 68 -221 173 -272
69 -34 187 -32 257 4 105 55 166 154 166 269 0 115 -63 218 -165 271 -53 27
-175 35 -228 15z m168 -144 c19 -9 46 -33 60 -54 22 -33 25 -47 21 -97 -5 -69
-27 -104 -84 -132 -51 -25 -94 -25 -143 0 -93 47 -115 173 -43 254 41 45 127
59 189 29z"/>
<path d="M2530 3250 c-29 -29 -26 -74 6 -99 27 -21 32 -21 841 -21 913 0 872
-4 873 76 0 68 54 64 -868 64 -819 0 -832 0 -852 -20z"/>
<path d="M2530 2820 c-29 -29 -26 -74 6 -99 26 -20 37 -21 444 -21 407 0 418
1 444 21 32 25 35 70 6 99 -19 19 -33 20 -450 20 -417 0 -431 -1 -450 -20z"/>
<path d="M923 1620 c-44 -18 -56 -73 -23 -108 l21 -22 1579 0 1579 0 21 27
c15 19 19 35 15 53 -15 59 107 55 -1603 57 -891 1 -1576 -2 -1589 -7z"/>
<path d="M933 1193 c-49 -9 -69 -77 -33 -113 20 -20 31 -20 1601 -18 l1582 3
20 27 c17 23 18 31 8 57 -8 18 -24 34 -43 40 -30 11 -3082 14 -3135 4z"/>
</g>
</svg>
