<?xml version="1.0" standalone="no"?>
<!DOCTYPE svg PUBLIC "-//W3C//DTD SVG 20010904//EN"
 "http://www.w3.org/TR/2001/REC-SVG-20010904/DTD/svg10.dtd">
<svg version="1.0" xmlns="http://www.w3.org/2000/svg"
 width="512.000000pt" height="512.000000pt" viewBox="0 0 512.000000 512.000000"
 preserveAspectRatio="xMidYMid meet">

<g transform="translate(0.000000,512.000000) scale(0.100000,-0.100000)"
fill="#000000" stroke="none">
<path d="M940 5113 c-80 -8 -200 -36 -272 -65 -85 -32 -108 -58 -108 -120 0
-29 26 -58 252 -285 l253 -253 -168 -168 -167 -167 -237 236 c-250 249 -274
269 -310 269 -62 0 -87 -30 -130 -154 -145 -428 21 -921 398 -1177 87 -59 230
-124 329 -150 128 -33 333 -38 465 -10 l100 21 180 -180 180 -180 -621 -622
-620 -623 -222 -672 c-122 -369 -222 -686 -222 -703 0 -43 47 -90 90 -90 17 0
334 100 703 222 l672 222 623 620 622 621 181 -181 181 -181 -18 -69 c-27 -99
-27 -368 0 -474 97 -383 373 -665 754 -767 86 -24 116 -27 257 -26 168 0 228
10 369 63 88 33 117 74 101 137 -4 18 -96 118 -253 276 l-247 247 168 168 167
167 253 -253 c224 -223 257 -252 284 -252 53 0 81 20 108 75 63 135 93 333 75
500 -48 446 -354 799 -790 908 -116 29 -348 31 -464 3 l-79 -18 -181 181 -181
181 816 817 c766 767 818 822 850 888 31 64 34 77 34 160 -1 164 0 163 -349
511 -277 277 -306 304 -361 325 -92 36 -218 33 -305 -6 -61 -27 -114 -77 -888
-849 l-822 -821 -181 181 -181 181 18 79 c28 116 26 348 -3 464 -108 431 -460
741 -896 789 -94 11 -136 12 -207 4z m235 -208 c280 -49 527 -246 631 -503 48
-119 59 -179 59 -322 0 -118 -4 -147 -29 -232 -18 -65 -26 -107 -21 -125 4
-18 84 -106 218 -241 l212 -212 -200 -200 -200 -200 -215 214 c-118 118 -225
217 -236 220 -13 4 -59 -5 -110 -21 -81 -25 -103 -27 -249 -27 -155 0 -163 1
-255 32 -366 126 -597 460 -577 832 10 177 -12 183 241 -68 122 -121 232 -225
245 -232 54 -27 73 -13 343 257 141 142 262 270 267 286 7 18 7 36 0 55 -5 15
-110 127 -232 249 -121 122 -219 225 -216 228 9 8 116 22 180 24 31 0 96 -6
144 -14z m3153 0 c50 -21 547 -515 573 -570 48 -102 23 -148 -190 -360 l-171
-170 -367 368 -368 367 170 171 c209 210 253 235 353 194z m-1047 -1480 c-404
-404 -685 -692 -691 -710 -29 -78 47 -154 126 -125 17 6 311 293 709 691 l680
679 148 -148 147 -147 -1485 -1485 -1485 -1485 -147 147 -148 148 503 503 502
503 0 43 c0 60 -41 101 -101 101 l-43 0 -503 -502 -503 -503 -148 148 -147
147 1485 1485 1485 1485 147 -147 148 -148 -679 -680z m204 -1394 c133 -133
220 -212 238 -216 18 -5 60 3 125 21 86 26 113 29 232 29 142 0 204 -12 322
-59 92 -38 164 -85 250 -165 191 -179 288 -434 261 -683 -6 -55 -14 -103 -18
-106 -3 -3 -106 94 -228 215 -122 122 -234 227 -249 232 -19 7 -37 7 -55 0
-16 -5 -144 -126 -286 -267 -270 -270 -284 -289 -257 -343 7 -13 111 -124 233
-246 l220 -221 -39 -9 c-21 -4 -95 -8 -164 -7 -97 0 -142 5 -203 22 -277 78
-488 280 -579 552 -30 90 -32 103 -32 250 -1 142 1 163 27 251 27 90 28 99 13
125 -8 16 -107 121 -220 234 l-206 205 197 197 c109 109 200 198 203 198 2 0
99 -94 215 -209z m-2560 -1111 c175 -175 317 -321 315 -323 -3 -2 -75 -27
-160 -56 l-155 -51 -217 217 -218 218 52 158 c29 86 55 157 58 157 3 0 149
-144 325 -320z m-221 -499 c-6 -6 -417 -141 -421 -138 -2 2 113 363 133 416 3
10 51 -31 149 -129 79 -79 142 -146 139 -149z"/>
<path d="M2297 2435 c-34 -34 -40 -67 -23 -110 17 -41 71 -69 111 -59 43 11
75 52 75 96 0 85 -104 132 -163 73z"/>
</g>
</svg>
