<?xml version="1.0" standalone="no"?>
<!DOCTYPE svg PUBLIC "-//W3C//DTD SVG 20010904//EN"
 "http://www.w3.org/TR/2001/REC-SVG-20010904/DTD/svg10.dtd">
<svg version="1.0" xmlns="http://www.w3.org/2000/svg"
 width="512.000000pt" height="512.000000pt" viewBox="0 0 512.000000 512.000000"
 preserveAspectRatio="xMidYMid meet">

<g transform="translate(0.000000,512.000000) scale(0.100000,-0.100000)"
fill="#000000" stroke="none">
<path d="M398 4733 c-294 -294 -318 -320 -318 -352 0 -31 14 -49 137 -172 117
-116 143 -138 173 -141 l34 -3 106 -310 c58 -170 113 -324 123 -341 27 -52
118 -145 181 -186 77 -50 152 -72 313 -93 l132 -18 11 -71 c32 -201 34 -208
61 -228 25 -19 32 -19 139 -8 103 12 113 11 122 -4 51 -90 184 -155 325 -159
72 -1 178 99 203 193 11 42 0 37 154 61 122 19 129 33 101 204 -14 87 -11 104
16 105 18 0 85 81 107 129 67 147 -4 311 -164 376 l-59 24 -16 104 c-19 120
-30 144 -67 154 -16 4 -154 -13 -341 -42 l-313 -47 -99 98 c-96 96 -99 100
-99 144 0 73 -27 176 -62 243 -21 40 -70 100 -140 172 l-107 110 6 43 6 43
-144 145 c-120 120 -150 144 -174 144 -25 0 -75 -46 -347 -317z m417 57 l60
-60 -240 -240 -240 -240 -65 65 -65 65 235 235 c129 129 240 235 245 235 6 0
37 -27 70 -60z m331 -462 c21 -40 44 -160 44 -230 l0 -61 174 -176 c139 -141
176 -184 185 -216 13 -46 14 -105 3 -122 -5 -8 -81 62 -222 203 -118 118 -224
217 -236 220 -24 6 -62 -10 -81 -35 -28 -37 -15 -62 87 -165 l99 -101 27 -178
c15 -97 25 -179 22 -182 -13 -13 -244 27 -293 50 -57 27 -131 94 -169 152 -24
36 -236 649 -236 682 0 9 84 100 187 203 l188 188 103 -103 c57 -56 110 -114
118 -129z m993 -570 c22 -149 36 -168 125 -168 34 0 51 -6 74 -28 76 -71 41
-188 -67 -220 -68 -21 -75 -41 -55 -161 10 -56 15 -103 13 -105 -2 -3 -47 -12
-99 -21 -121 -21 -140 -32 -140 -87 0 -87 -59 -158 -132 -158 -55 0 -97 33
-125 100 -34 77 -49 83 -175 67 l-97 -13 -6 25 c-2 14 -19 114 -35 221 -17
107 -33 209 -36 225 -5 28 0 24 73 -46 43 -42 85 -79 94 -82 29 -10 78 21 109
69 67 106 83 237 42 343 -12 30 -21 55 -19 56 2 2 405 62 428 64 12 1 18 -17
28 -81z"/>
<path d="M4201 4896 l-144 -144 6 -41 c5 -41 5 -41 -79 -117 -46 -42 -101 -99
-121 -126 -52 -72 -93 -179 -104 -278 l-10 -85 -84 -84 -84 -85 -354 38 c-195
21 -364 35 -375 32 -37 -12 -49 -48 -67 -199 -16 -137 -16 -149 -1 -172 10
-14 29 -31 44 -36 98 -38 129 -78 119 -151 -9 -64 -65 -108 -137 -108 -72 0
-83 -23 -105 -212 -23 -194 -23 -193 182 -218 186 -23 195 -20 230 75 21 57
68 95 118 95 68 0 135 -75 135 -151 0 -61 28 -77 166 -94 155 -19 208 -19 228
1 19 19 22 31 36 164 7 58 16 107 21 111 5 3 71 13 146 23 75 10 164 26 198
37 127 39 246 142 308 265 18 38 76 194 127 347 l94 277 31 0 c26 0 51 21 173
143 119 120 142 147 142 172 0 26 -42 72 -318 348 -275 275 -321 317 -347 317
-26 0 -53 -22 -174 -144z m422 -284 l237 -237 -65 -65 -65 -65 -240 240 -240
240 62 62 c34 35 65 63 68 63 3 0 112 -107 243 -238z m-243 -247 l195 -195
-94 -282 c-109 -331 -142 -405 -208 -472 -71 -73 -143 -103 -304 -125 -74 -10
-135 -18 -136 -17 -2 1 6 78 18 172 l20 169 114 115 c116 117 128 136 109 185
-9 23 -61 47 -87 39 -12 -3 -120 -103 -239 -222 -205 -203 -218 -215 -220
-187 -7 120 4 139 196 333 l171 173 6 92 c10 146 33 193 152 315 56 56 103
102 106 102 4 0 94 -88 201 -195z m-1145 -549 c161 -17 200 -25 198 -36 -1 -8
-12 -42 -24 -75 -33 -92 -24 -188 25 -282 46 -87 67 -107 112 -107 28 0 44 10
90 54 l56 55 -6 -45 c-3 -25 -15 -126 -27 -225 -11 -99 -22 -181 -22 -182 -1
-1 -26 2 -56 5 -53 7 -53 7 -72 57 -27 71 -70 119 -141 154 -47 24 -75 31
-118 31 -105 0 -201 -52 -245 -134 l-20 -37 -55 7 c-30 4 -58 8 -61 10 -6 3 6
114 13 118 2 1 24 10 49 19 110 41 179 141 178 257 0 109 -42 188 -125 239
-46 28 -50 39 -38 112 6 36 7 36 48 32 22 -3 131 -14 241 -27z"/>
<path d="M3245 2440 c-64 -25 -122 -81 -152 -146 l-23 -51 -112 -10 c-104 -9
-113 -12 -135 -38 -24 -27 -24 -30 -18 -159 11 -205 20 -226 105 -226 23 0 50
-4 60 -10 31 -17 60 -74 60 -120 0 -36 -6 -48 -39 -81 -26 -26 -48 -39 -66
-39 -16 0 -38 -12 -56 -30 l-30 -30 7 -142 c4 -79 10 -154 14 -168 13 -52 29
-53 402 -25 328 25 342 25 358 8 156 -168 150 -159 150 -211 0 -149 51 -259
190 -406 92 -99 98 -108 93 -139 -4 -29 1 -41 45 -93 28 -32 91 -101 139 -151
111 -117 126 -119 211 -39 31 29 174 162 317 295 143 133 264 253 269 267 6
15 6 33 0 49 -14 38 -245 282 -280 296 -30 11 -32 18 -113 293 -46 154 -97
310 -114 346 -43 88 -149 193 -241 240 -51 25 -111 43 -220 66 l-151 30 -6 97
c-9 127 -14 144 -49 162 -25 13 -47 14 -132 6 -97 -8 -104 -7 -118 11 -8 11
-34 42 -58 68 -77 86 -207 120 -307 80z m173 -162 c23 -14 42 -38 58 -74 34
-77 52 -86 176 -83 l103 2 12 -194 c6 -107 12 -213 12 -237 l1 -44 -76 81
c-66 70 -80 81 -110 81 -43 0 -106 -60 -137 -129 -31 -69 -35 -198 -9 -276 11
-33 19 -61 18 -62 -2 -2 -74 -8 -162 -13 -87 -5 -192 -12 -231 -16 l-73 -6 0
61 c0 58 1 61 33 77 45 23 105 82 130 129 16 31 22 58 22 115 0 66 -4 82 -31
130 -33 59 -111 127 -156 137 -24 5 -28 10 -28 42 0 20 -3 45 -6 57 -5 20 -1
21 103 27 100 6 110 8 131 32 12 14 22 37 22 51 0 38 25 88 55 112 36 29 97
29 143 0z m642 -453 c74 -15 140 -35 164 -49 54 -32 143 -126 162 -172 9 -21
54 -166 100 -323 47 -157 89 -298 94 -313 8 -26 -1 -36 -197 -220 l-205 -192
-92 94 c-120 124 -137 159 -144 303 l-5 111 -160 174 c-87 96 -165 190 -173
208 -15 35 -18 116 -5 148 6 15 30 -6 143 -130 75 -82 172 -184 217 -228 72
-69 84 -77 108 -72 37 9 63 41 63 78 0 24 -18 50 -90 128 l-91 99 -9 133 c-10
140 -12 248 -6 248 2 0 59 -11 126 -25z m774 -1084 c8 -12 -24 -47 -150 -169
-87 -84 -197 -187 -242 -230 l-84 -76 -56 58 -55 58 34 33 c19 18 130 124 248
234 l215 200 40 -46 c23 -25 45 -53 50 -62z"/>
<path d="M1394 2302 c-20 -13 -31 -46 -55 -166 -19 -96 -28 -120 -44 -127 -11
-4 -78 -15 -150 -25 -71 -9 -157 -25 -191 -35 -126 -39 -246 -142 -307 -265
-18 -38 -76 -194 -127 -346 l-94 -278 -35 0 c-32 0 -49 -13 -178 -143 -119
-119 -143 -148 -143 -172 0 -25 46 -75 317 -347 294 -294 320 -318 352 -318
31 0 49 14 174 139 136 137 139 140 136 180 -3 39 0 44 102 148 58 59 115 125
127 145 34 56 72 174 79 250 l6 68 84 83 c46 45 92 83 102 85 10 2 142 -24
294 -57 296 -65 350 -72 366 -43 5 9 17 60 26 112 19 104 27 120 59 120 40 0
122 47 159 91 100 117 85 293 -35 392 l-42 35 19 104 c23 119 22 143 -9 163
-12 8 -85 28 -162 43 -171 36 -185 33 -219 -44 -34 -78 -104 -106 -175 -69
-46 24 -60 52 -60 120 0 84 -13 94 -172 134 -127 31 -183 37 -204 23z m222
-186 c1 0 9 -26 18 -57 30 -107 104 -175 213 -198 100 -21 188 11 261 95 l39
44 55 -11 56 -11 -19 -86 c-30 -138 -25 -158 49 -187 102 -41 116 -163 25
-222 -19 -13 -43 -17 -81 -16 -76 4 -92 -16 -116 -139 -11 -54 -24 -98 -29
-98 -10 0 -372 78 -394 85 -7 3 -3 24 15 67 38 91 38 209 0 291 -43 92 -85
136 -132 137 -10 0 -54 -35 -97 -77 -44 -42 -79 -74 -79 -72 0 9 100 464 105
476 3 9 17 8 57 -3 29 -9 54 -17 54 -18z m-346 -291 c0 -8 -18 -97 -40 -197
l-40 -182 -85 -86 c-85 -86 -97 -108 -79 -155 9 -23 61 -47 87 -39 12 3 119
103 238 221 l216 215 6 -35 c6 -37 -6 -106 -25 -141 -6 -11 -86 -97 -177 -189
l-166 -168 -6 -92 c-10 -148 -32 -192 -158 -320 l-105 -107 -193 192 c-106
106 -193 200 -193 209 0 29 199 610 226 660 66 120 176 190 334 213 133 19
160 19 160 1z m-634 -1187 c129 -128 234 -237 234 -243 0 -13 -112 -125 -125
-125 -13 0 -475 462 -475 475 0 12 111 125 123 125 5 0 114 -104 243 -232z"/>
</g>
</svg>
